<svg xmlns="http://www.w3.org/2000/svg" width="430" height="430" fill="none" viewBox="0 0 430 430"><path fill="url(#fM7PQAH7Wya)" d="M221.381 313.648a7.5 7.5 0 1 1-15 0 7.5 7.5 0 0 1 15 0"/><path fill="url(#b8EQkeq8XHb)" d="M213.881 346.173a7.5 7.5 0 1 0 0-15 7.5 7.5 0 0 0 0 15"/><path fill="url(#BvLBB6sHkRc)" d="M221.381 363.698a7.5 7.5 0 1 1-15 0 7.5 7.5 0 0 1 15 0"/><path fill="url(#I4z05sk_Tdd)" fill-rule="evenodd" d="M286.745 96.225a7 7 0 0 0-.127-.242c-4.215-8.03-9.207-15.379-15.116-21.742-13.82-14.882-32.403-24.083-56.741-24.24l-.039-.001c-23.833 0-42.063 9.293-55.651 24.288-5.771 6.369-10.671 13.723-14.829 21.758q-.061.112-.117.226c-5.447 10.577-9.618 22.324-12.812 34.549-10.918 41.791-10.895 91.111-9.543 124.072-20.264 15.495-33.327 39.921-33.327 67.454v31.567a21.3 21.3 0 0 0 6.222 15.042 21.24 21.24 0 0 0 15.042 6.222h19.182c18.244 1.453 27.713 5.394 34.893 8.925.968.475 1.926.964 2.887 1.454l.003.002c6.264 3.195 12.629 6.441 22.265 6.441h52.127c9.635 0 16-3.246 22.264-6.441l.003-.002c.961-.49 1.919-.979 2.887-1.454 7.181-3.531 16.649-7.472 34.893-8.925h19.182a21.24 21.24 0 0 0 15.042-6.222 21.3 21.3 0 0 0 6.222-15.042v-31.567c0-27.773-13.291-52.384-33.858-67.857 1.972-33.492 2.582-82.604-8.21-124.125-3.141-12.083-7.287-23.685-12.744-34.14m-131.594 4.854c-1.721 6.854-2.727 17.05-3.285 25.983a364 364 0 0 0-.435 8.65c34.827-8.543 54.896-23.158 66.25-35.415 5.889-6.358 9.502-12.155 11.621-16.278 1.06-2.062 1.747-3.707 2.157-4.793.205-.543.34-.946.419-1.191q.058-.185.076-.248l.008-.027a6 6 0 0 1 8.555-3.737c19.36 10.068 29.919 23.969 35.653 36.581q-.123-1.767-.259-3.628v-.01l-.001-.015c-.147-2.043-.301-4.172-.449-6.391-3.664-6.81-7.892-12.92-12.752-18.153C251.104 69.91 235.662 62.14 214.702 62c-20.275.005-35.319 7.744-46.739 20.346-4.877 5.382-9.125 11.691-12.812 18.733m142.897 161.242.109.076c18.978 13.141 31.4 35.07 31.4 59.95v31.567a9.3 9.3 0 0 1-2.708 6.556 9.23 9.23 0 0 1-6.556 2.708h-19.418a6 6 0 0 0-.468.018c-20.128 1.574-31.119 6.025-39.484 10.138a351 351 0 0 0-3.246 1.622c-6.213 3.131-10.008 5.044-16.613 5.044h-52.127c-6.606 0-10.401-1.913-16.613-5.044-1.011-.509-2.086-1.051-3.247-1.622-8.365-4.113-19.356-8.564-39.484-10.138a6 6 0 0 0-.468-.018h-19.418a9.23 9.23 0 0 1-6.556-2.708 9.3 9.3 0 0 1-2.708-6.556v-31.567c0-24.329 11.878-45.837 30.15-59.065a6 6 0 0 0 1.459-1.029 72.5 72.5 0 0 1 21.148-9.97C162.099 274.947 184.168 291 210 291h10c25.832 0 47.901-16.053 56.8-38.717a72.6 72.6 0 0 1 21.248 10.038m-1.969-15.18c1.609-32.595 1.43-76.381-8.102-113.36-.751 3.989-2.203 7.81-4.985 10.736v27.056c0 23.024-11.552 43.336-29.179 55.46v10.5h3.034c5.393 0 10.727.561 15.773 1.439l.097.017q.67.128 1.336.267l.107.022a84.3 84.3 0 0 1 21.919 7.863m-31.319 2.833a74 74 0 0 0-7.913-.441h-9.034a6 6 0 0 1-6-6v-9.936c-8.021 3.375-16.834 5.241-26.086 5.241h-1.454c-9.252 0-18.065-1.866-26.086-5.241v9.936a6 6 0 0 1-6 6h-9.034c-2.63 0-5.279.158-7.913.441C172.887 267.083 190.058 279 210 279h10c19.942 0 37.113-11.917 44.76-29.026m-108.814-10.718q.666-.139 1.337-.267l.097-.017c5.047-.878 10.38-1.439 15.773-1.439h3.034v-10.5c-17.627-12.124-29.179-32.436-29.179-55.46v-22.55q-.433.078-.873.146a6 6 0 0 1-6.086-2.893c-6.985 34.269-7.459 72.314-6.545 101.085a84.4 84.4 0 0 1 22.337-8.083zm3.062-67.683v-25.422c34.169-9.219 55.005-24.236 67.477-37.699 6.704-7.238 10.925-13.955 13.49-18.947q.408-.795.762-1.53c26.632 16.849 29.849 42.378 30.119 50.861l.002.048.004.076c.044.85.043 1.496.033 1.902-.015.599.013 1.188.097 1.757v28.954c0 30.537-24.727 55.265-55.265 55.265h-1.454c-30.538 0-55.265-24.728-55.265-55.265" clip-rule="evenodd"/><defs><linearGradient id="fM7PQAH7Wya" x1="157.292" x2="350.423" y1="121.707" y2="275.724" gradientUnits="userSpaceOnUse"><stop stop-color="#cb5eee"/><stop offset="1" stop-color="#4be1ec"/></linearGradient><linearGradient id="b8EQkeq8XHb" x1="157.292" x2="350.423" y1="121.707" y2="275.724" gradientUnits="userSpaceOnUse"><stop stop-color="#cb5eee"/><stop offset="1" stop-color="#4be1ec"/></linearGradient><linearGradient id="BvLBB6sHkRc" x1="157.292" x2="350.423" y1="121.707" y2="275.724" gradientUnits="userSpaceOnUse"><stop stop-color="#cb5eee"/><stop offset="1" stop-color="#4be1ec"/></linearGradient><linearGradient id="I4z05sk_Tdd" x1="157.292" x2="350.423" y1="121.707" y2="275.724" gradientUnits="userSpaceOnUse"><stop stop-color="#cb5eee"/><stop offset="1" stop-color="#4be1ec"/></linearGradient></defs></svg>